<?xml version="1.0" standalone="no"?>
<!DOCTYPE svg PUBLIC "-//W3C//DTD SVG 20010904//EN"
 "http://www.w3.org/TR/2001/REC-SVG-20010904/DTD/svg10.dtd">
<svg version="1.0" xmlns="http://www.w3.org/2000/svg"
 width="700.000000pt" height="700.000000pt" viewBox="0 0 700.000000 700.000000"
 preserveAspectRatio="xMidYMid meet">
<metadata>
Created by potrace 1.14, written by Peter Selinger 2001-2017
</metadata>
<g transform="translate(0.000000,700.000000) scale(0.100000,-0.100000)"
fill="#000000" stroke="none">
<path d="M1538 6777 l-507 -222 -1 -510 0 -510 1348 -648 c741 -356 1353 -651
1361 -656 10 -7 -76 -54 -300 -163 -173 -85 -785 -385 -1361 -668 l-1048 -514
0 -500 0 -501 1088 -520 c598 -286 1481 -708 1962 -938 542 -260 882 -417 895
-414 11 2 239 102 508 222 l487 218 0 1568 c0 863 -3 1569 -7 1569 -5 -1 -231
-101 -503 -224 l-495 -224 -5 -1064 -5 -1065 -740 356 c-407 196 -1006 484
-1332 641 -326 156 -589 287 -585 291 4 3 603 309 1332 680 1181 600 1380 698
1830 899 l505 226 3 505 2 504 -1947 937 c-1072 516 -1955 939 -1963 942 -8 3
-243 -95 -522 -217z"/>
</g>
</svg>
